<?xml version="1.0" encoding="UTF-8"?>
<svg width="30px" height="31px" viewBox="0 0 30 31" version="1.1" xmlns="http://www.w3.org/2000/svg" xmlns:xlink="http://www.w3.org/1999/xlink">
    <title>Fill 1</title>
    <g id="♻️Symbols" stroke="none" stroke-width="1" fill="none" fill-rule="evenodd">
        <g id="i/globe" transform="translate(0.000000, -1.000000)" fill="#0A224C" stroke="#FFFFFF" stroke-width="0.5">
            <path d="M15.3425076,2 C13.3445333,2 11.4791095,2.38089508 9.74617737,3.14270501 C7.99285529,3.88391906 6.46891547,4.91337644 5.17431193,6.23109691 C3.87970838,7.54881738 2.85525333,9.08270552 2.10091743,10.8328009 C1.36696886,12.6034921 1,14.4873914 1,16.484558 C1,18.5023206 1.36696886,20.3862199 2.10091743,22.1363152 C2.85525333,23.9070025 3.87970838,25.4460356 5.17431193,26.7534611 C6.46891547,28.0608866 7.99285529,29.095488 9.74617737,29.857295 C11.4791095,30.6191022 13.3445333,31 15.3425076,31 C17.340482,31 19.2059058,30.6191022 20.9388379,29.857295 C22.6921639,29.095488 24.2160979,28.0608866 25.5107083,26.7534611 C26.8053089,25.4460356 27.829759,23.9070025 28.5840979,22.1363152 C29.3180428,20.3862199 29.6850153,18.5023206 29.6850153,16.484558 C29.6850153,14.4873914 29.3180428,12.6034921 28.5840979,10.8328009 C27.829759,9.08270552 26.8053089,7.54881738 25.5107083,6.23109691 C24.2160979,4.91337644 22.6921639,3.88391906 20.9388379,3.14270501 C19.2059058,2.38089508 17.340482,2 15.3425076,2 Z M26.9633028,15.1874334 L21.733945,15.1874334 C21.6727829,14.2609159 21.5504587,13.3549942 21.3669725,12.4696486 C21.1834862,11.584303 20.9439364,10.7144141 20.6483131,9.85996234 C20.3526997,9.00550066 20.0010226,8.17678381 19.5932722,7.37380192 C19.1855217,6.57082002 18.7268159,5.78843399 18.2171254,5.02662407 C19.3792147,5.33546326 20.4699254,5.79872204 21.4892966,6.41640043 C22.4882838,7.05467468 23.3751242,7.8216138 24.1498471,8.71724745 C24.92457,9.61289099 25.546378,10.6063155 26.0152905,11.6975506 C26.5045872,12.7887857 26.8205945,13.9520668 26.9633028,15.1874334 Z M11.5504587,17.8125666 L19.2568807,17.8125666 C19.1549407,18.6979122 19.0020355,19.5729499 18.7981651,20.4376997 C18.5942948,21.3024534 18.3292526,22.1466053 18.0030581,22.970181 C17.6768636,23.7937558 17.3098911,24.5967298 16.9021407,25.3791267 C16.4740061,26.1409337 15.9949064,26.8718459 15.4648318,27.571885 C14.8735951,26.8718459 14.3537272,26.1409337 13.9051988,25.3791267 C13.4566703,24.5967298 13.0693138,23.7937558 12.7431193,22.970181 C12.4169248,22.1466053 12.1518826,21.3024534 11.9480122,20.4376997 C11.7441419,19.5729499 11.6116208,18.6979122 11.5504587,17.8125666 Z M11.5504587,15.1874334 C11.6523988,14.2815019 11.805304,13.3961661 12.0091743,12.5314164 C12.2334385,11.6666667 12.5035694,10.8225128 12.819567,9.99893504 C13.1355743,9.17535727 13.5076453,8.38268319 13.9357798,7.62087327 C14.3435303,6.85906334 14.812433,6.1281571 15.3425076,5.42811502 C15.8929664,6.14874309 16.3924502,6.9002452 16.8409786,7.68264111 C17.2691131,8.46503702 17.6411841,9.26800903 17.9571817,10.0915868 C18.273189,10.9151646 18.5331327,11.7593184 18.7370031,12.6240682 C18.9408734,13.4682319 19.0733945,14.3226837 19.1345566,15.1874334 L11.5504587,15.1874334 Z M12.3455657,5.02662407 C11.8562691,5.78843399 11.4179474,6.57082002 11.030581,7.37380192 C10.6432196,8.17678381 10.3068311,9.00550066 10.0214067,9.85996234 C9.73598239,10.7144141 9.50153003,11.584303 9.31804281,12.4696486 C9.1345556,13.3549942 9.01223242,14.2609159 8.95107034,15.1874334 L3.72171254,15.1874334 C3.86442471,13.9520668 4.17023217,12.7887857 4.63914373,11.6975506 C5.12844232,10.6063155 5.75534777,9.61289099 6.51987768,8.71724745 C7.28440758,7.8216138 8.15595841,7.05467468 9.13455657,6.41640043 C10.1335418,5.79872204 11.2038703,5.33546326 12.3455657,5.02662407 Z M3.72171254,17.8125666 L8.95107034,17.8125666 C9.01223242,18.7390841 9.1345556,19.6450058 9.31804281,20.5303514 C9.50153003,21.4156951 9.7410789,22.2804359 10.0366972,23.1246006 C10.3323156,23.9687654 10.6839936,24.8026233 11.0917431,25.6261981 C11.4994936,26.4291839 11.9581994,27.211569 12.4678899,27.9733759 C11.3058006,27.6645348 10.2150919,27.1909869 9.19571865,26.5527157 C8.19673346,25.9144444 7.30989211,25.1526493 6.5351682,24.2673056 C5.76044428,23.381962 5.13863633,22.3936865 4.66972477,21.3024494 C4.18042618,20.1906184 3.86442471,19.0273373 3.72171254,17.8125666 Z M18.3394495,27.9733759 C18.8287462,27.211569 19.2670679,26.4291839 19.6544343,25.6261981 C20.0621847,24.8026233 20.4087633,23.9687654 20.6941896,23.1246006 C20.9796159,22.2804359 21.2242642,21.4156951 21.4281346,20.5303514 C21.6320049,19.6450058 21.7747229,18.7390841 21.8562691,17.8125666 L27.0856269,17.8125666 C26.9225248,19.0273373 26.5861431,20.1906184 26.0764526,21.3024494 C25.587156,22.3936865 24.9551511,23.381962 24.1804281,24.2673056 C23.4057052,25.1526493 22.529052,25.9144444 21.5504587,26.5527157 C20.5514716,27.1909869 19.481145,27.6645348 18.3394495,27.9733759 Z" id="Fill-1"></path>
        </g>
    </g>
</svg>