<?xml version="1.0" encoding="UTF-8"?>
<svg width="104px" height="12px" viewBox="0 0 104 12" version="1.1" xmlns="http://www.w3.org/2000/svg" xmlns:xlink="http://www.w3.org/1999/xlink">
    <title>Fill 11</title>
    <g id="♻️Symbols" stroke="none" stroke-width="1" fill="none" fill-rule="evenodd">
        <g id="stroke" transform="translate(-1.000000, -1.000000)" fill="#05F29B">
            <path d="M20,8.67431012 C20.1161737,8.59493976 20.2338179,8.49050507 20.3727852,8.42366687 C20.9007136,8.16745377 20.9433597,8.08320979 20.7529231,7.59724038 C20.6911599,7.43780342 20.6286614,7.27975893 20.5396929,7.05348377 C20.8263772,7.03886292 21.0352692,7.02702699 21.2440877,7.01936844 C21.5102578,7.01031744 21.7778984,6.99708904 22.0440685,7.0005702 C22.2595045,7.00265889 22.4830286,6.99639281 22.6867001,7.045129 C23.4999159,7.24425114 24.3123964,7.29994964 25.143994,7.11475212 C25.4020761,7.05766116 25.6814811,7.01240613 25.9402984,7.04025538 C27.2681341,7.18159032 28.5924406,7.35077452 29.9188793,7.50603409 C30.1600499,7.5352758 30.4107792,7.51647756 30.6431266,7.56939113 C30.7834908,7.60141777 30.9842948,7.71699216 30.9990004,7.81585699 C31.0144412,7.91820299 30.8474599,8.1368196 30.7431242,8.14726307 C30.0865223,8.21758242 29.3997741,8.53367141 28.7886858,8.02403014 C28.5064132,7.78800774 28.2659778,7.89801228 28.0336305,8.12637613 C27.8592964,8.29904148 27.6564336,8.4466425 27.4343801,8.63114379 C27.2879866,8.47379552 27.1894596,8.38050054 27.1079174,8.27676208 C26.92851,8.05118315 26.6630016,7.95371078 26.402052,8.0588417 C25.872653,8.27536962 25.3439892,8.20226534 24.8175313,8.1368196 C24.3822476,8.08251356 24.0645347,8.18068217 23.821967,8.53019025 C23.6771175,8.73766717 23.4668284,8.89919282 23.175659,8.827481 C23.1263955,8.7606428 23.0830141,8.72861616 23.0763967,8.68893098 C22.9373559,7.96136932 22.774198,7.92725399 22.1271548,8.32549827 C21.6705481,8.60677569 21.1301199,8.78361843 20.6110147,8.96533479 C20.383079,9.04470515 20.1205853,9.0036275 20,8.67431012 Z M19.0088006,7.61853116 C18.5644179,7.82748921 18.1275671,7.9753291 18.0537544,8.60302919 C18.0191076,8.90283857 17.7110525,8.96726042 17.4496952,8.96560858 C16.6490531,8.96313082 15.816777,9.08041162 15.0553009,8.89540528 C14.3887268,8.73187289 13.766591,8.70957302 13.1045361,8.77729856 C12.8409193,8.80372803 12.5388897,8.75747645 12.3000528,8.64267341 C11.5168094,8.26853112 10.6958312,8.23962388 9.86958064,8.35029731 C9.00943649,8.46510035 8.23214334,8.22475729 7.46230679,7.90182212 C7.22580481,7.80188566 6.97951134,7.68212709 7.00135388,7.35836599 C7.02477812,7.02964937 7.28839498,6.95449054 7.53694802,6.89006869 C8.15381148,6.73231775 8.76766217,6.57787049 9.32351715,7.07424911 C9.54646169,7.27412203 9.76187433,7.19648544 10.005155,7.02964937 C10.8442098,6.44820086 11.0099119,6.46719705 11.7563242,7.11719701 C12.9892226,5.7825084 13.1218595,5.76186037 14.8142798,6.43663797 C15.0846753,6.5431818 15.4024466,6.54978917 15.6992039,6.55226693 C16.826053,6.56052614 17.9542578,6.54235588 19.0818601,6.54648548 C19.3973719,6.54813732 19.7386427,6.50601535 20,6.84629487 C19.8071831,7.3079848 19.3786174,7.44343587 19.0088006,7.61853116 Z M32.5048203,7 C32.7212971,7.25287762 32.8605609,7.41514077 33,7.57845757 C32.8343558,7.72913048 32.6695881,7.99570565 32.5021911,7.99992027 C32.3365469,8.00518856 32.167397,7.74809631 32,7.60479899 C32.1419807,7.43516025 32.283085,7.26552151 32.5048203,7 Z M30.6339775,10.5678466 C33.1574461,10.6784661 35.6831263,10.7286136 38.2073322,10.8119469 C40.0437214,10.8731563 41.8793734,10.9513274 43.7150254,11.0147493 C44.4736141,11.0412979 45.23294,11.0722714 45.992266,11.0656342 C48.7383719,11.0405605 51.485215,10.9815634 54.2305837,10.9712389 C55.7743007,10.9660767 57.3172805,11.0383481 58.8609974,11.0648968 C59.8908793,11.0833333 60.92371,11.0427729 61.9513803,11.0943953 C64.7159164,11.2345133 67.4782409,11.4129794 70.2420399,11.5685841 C71.0728751,11.6143068 71.905922,11.6445428 72.7389689,11.6644543 C74.2568836,11.70059 75.7762726,11.7182891 77.2941873,11.7529499 C77.9562015,11.7676991 78.6167414,11.8038348 79.2787556,11.8311209 C79.3516657,11.8348083 79.4343069,11.8244838 79.4962325,11.8517699 C80.1744654,12.1482301 80.8872734,11.9963127 81.5906451,12.0110619 C82.346285,12.0265487 83.0960272,12.1629794 83.8515933,12.2020649 C85.0975513,12.2662242 86.3478589,12.2831858 87.5944067,12.3421829 C89.085192,12.4122419 90.5742818,12.5058997 92.0649196,12.590708 C92.1622313,12.5958702 92.2713383,12.6356932 92.3553802,12.6061947 C93.0991511,12.3488201 93.8084204,12.6334808 94.5322866,12.689528 C95.7539167,12.7831858 96.9768738,12.8576696 98.1969557,12.960177 C98.2950783,12.9682891 98.3909156,12.9867257 98.4882272,13 C98.5176419,12.9328909 98.5655605,12.8702065 98.6570483,12.8362832 C99.1184678,12.6681416 99.5837208,12.5575221 100.074702,12.5265487 C100.169802,12.5199115 100.236889,12.5530973 100.28923,12.5980826 C101.371454,12.4992625 102.438196,12.3185841 103.50715,12.1179941 C103.46513,12.0678466 103.435641,12.0110619 103.391409,11.9646018 C103.227748,11.7839233 103.274192,11.5486726 103.509362,11.4483776 C104.096918,11.2028024 104.544331,10.7861357 105,10.3761062 C104.511967,10.2131268 104.06743,9.95648968 103.572025,9.77433628 C103.347176,9.69100295 103.358234,9.36283186 103.546223,9.25 C103.886076,9.04646018 104.184646,8.83702065 104.475844,8.59882006 C104.18096,8.52433628 103.890499,8.43584071 103.586032,8.38569322 C103.322848,8.34292035 103.24839,7.9660767 103.485034,7.83628319 C103.689978,7.72271386 103.883127,7.60840708 104.07259,7.48746313 C103.313264,7.05825959 103.085467,6.3879056 103.196785,5.60545723 C102.987418,5.80162242 102.808276,6.02507375 102.671818,6.2979351 C102.613579,6.41445428 102.332702,6.50884956 102.172801,6.48893805 C101.54315,6.40781711 100.923157,6.27064897 100.295865,6.16887906 C100.088046,6.13348083 99.8358465,6.06268437 99.6648138,6.13864307 C99.2158532,6.33554572 98.7705785,6.34660767 98.2972899,6.3259587 C97.9861875,6.31342183 97.6537059,6.35545723 97.3595593,6.45501475 C96.8847963,6.61356932 96.4402589,6.5980826 96.0038308,6.39528024 C95.565191,6.19100295 95.118442,6.22713864 94.642868,6.26106195 C93.7471583,6.32522124 92.8382526,6.52359882 91.9484405,6.21902655 C91.8378591,6.18141593 91.7066358,6.179941 91.5857334,6.18657817 C90.8780121,6.22566372 90.1695537,6.29867257 89.4618324,6.3060472 C89.0534183,6.30973451 88.6316606,6.25663717 88.2417505,6.14675516 C87.856927,6.03834808 87.515599,6.08038348 87.1705848,6.22566372 C86.787973,6.38643068 86.5181543,6.26622419 86.2719263,5.97861357 C86.031596,5.69764012 85.9157803,5.4439528 86.1886216,5.10103245 C86.4443596,4.77876106 86.4871178,4.42182891 86.126696,4 C86.0360192,4.25516224 85.9734301,4.43289086 85.875971,4.70870206 C85.4926957,4.57300885 85.1240909,4.46976401 84.7812884,4.31489676 C83.8243903,3.88274336 83.4056552,4.04129794 82.9684899,5.08112094 C83.7676251,5.12979351 84.5439069,4.48230088 85.3666329,4.9579646 C85.121142,5.31415929 84.9205473,5.62463127 84.6935605,5.91666667 C84.6286123,5.99926254 84.4937029,6.06268437 84.3831215,6.07522124 C83.7027507,6.15339233 83.0200946,6.21386431 82.3389129,6.28539823 C82.0713058,6.31342183 81.8036987,6.34365782 81.537566,6.38348083 C81.4174008,6.4019174 81.2987101,6.47713864 81.1821572,6.47271386 C80.4884429,6.44542773 79.7955396,6.40339233 79.1018253,6.3620944 C78.9101508,6.35176991 78.710367,6.28761062 78.5268018,6.320059 C77.1821314,6.55899705 75.8426215,6.429941 74.5015635,6.34365782 C74.2332929,6.32743363 73.9641376,6.28244838 73.6966042,6.28834808 C69.8918653,6.37241888 66.1018705,6.1460177 62.3095904,5.9439528 C60.6229285,5.8539823 58.9288207,5.83112094 57.2369246,5.82817109 C54.2202628,5.82374631 51.2028637,5.87389381 48.1869391,5.86946903 C45.9310776,5.86578171 43.6752161,5.81120944 41.4200918,5.78097345 C41.3957638,5.78097345 41.3655383,5.78761062 41.3470343,5.77654867 C40.6835456,5.40044248 39.9994888,5.69690265 39.3175699,5.71165192 C38.3384817,5.73230088 37.3580666,5.64896755 36.3782413,5.60176991 C33.5393207,5.46681416 30.7003264,5.3399705 27.86347,5.18362832 C26.1030871,5.08554572 24.3470537,4.8620944 22.5851227,4.83185841 C19.0332466,4.76917404 15.478348,4.66224189 11.9221224,4.9159292 C10.1830449,5.04129794 8.43659524,5.05530973 6.69972933,5.18436578 C5.65805211,5.26253687 4.6252214,5.46681416 3.52899066,5.62241888 C3.62998838,5.90781711 3.69412562,6.09070796 3.79291172,6.36873156 C3.44126272,6.40265487 3.15891142,6.43510324 2.87656013,6.45648968 C2.20710006,6.50737463 1.64689445,6.76327434 1.21334146,7.26474926 C0.905998763,7.62094395 0.93253831,7.70575221 1.28123847,7.99852507 C1.70292238,8.3539823 2.17834888,8.52728614 2.74010263,8.55088496 C3.96320714,8.59955752 5.18771236,8.64454277 6.40631989,8.74557522 C6.91057128,8.78539823 7.40229012,8.95501475 7.89548336,9.07817109 C8.10632532,9.13126844 8.30463472,9.26106195 8.51621388,9.27728614 C10.0975286,9.39896755 11.6788432,9.53171091 13.263844,9.60176991 C15.7828156,9.71312684 18.3034091,9.85103245 20.8239288,9.84660767 C24.1214676,9.83923304 27.3570807,10.4247788 30.6339775,10.5678466 L30.6339775,10.5678466 Z" id="Fill-11" style="mix-blend-mode: multiply;" transform="translate(53.000000, 8.500000) rotate(-4.000000) translate(-53.000000, -8.500000) "></path>
        </g>
    </g>
</svg>