<?xml version="1.0" encoding="utf-8"?>
<!-- Generator: Adobe Illustrator 24.0.1, SVG Export Plug-In . SVG Version: 6.00 Build 0)  -->
<svg version="1.1" id="Layer_1" xmlns="http://www.w3.org/2000/svg" xmlns:xlink="http://www.w3.org/1999/xlink" x="0px" y="0px"
	 width="1296px" height="941px" viewBox="0 0 1296 941" enable-background="new 0 0 1296 941" xml:space="preserve">
<path display="none" fill="none" d="M32.5,17c-7.7,0-14,6.3-14,14v879.3c0,2.5,0.6,4.8,1.8,6.8V40.7c0-12.2,9.8-22,22-22h1228.2
	c-2-1.1-4.3-1.7-6.7-1.7H32.5z"/>
<path fill="#CCD6E6" d="M1283.2,33.4v26.4V907v15.8c0,4.7-3.8,8.5-8.5,8.5h-206.9H209.3H18.5c-4.7,0-8.5-3.8-8.5-8.5V907v-27.3V33.4
	V18.5c0-4.7,3.8-8.5,8.5-8.5h190.8h858.6h206.9c4.7,0,8.5,3.8,8.5,8.5V33.4z"/>
<path fill="#FFFFFF" d="M1274.7,8.5h-206.9H209.3H18.5c-5.5,0-10,4.5-10,10v14.9v846.2V907v15.8c0,5.5,4.5,10,10,10h190.8h858.6
	h206.9c5.5,0,10-4.5,10-10V907V59.8V33.4V18.5C1284.7,13,1280.2,8.5,1274.7,8.5z"/>
<path fill="#EEF1F6" d="M1285.3,14c0.6,1.4,0.9,2.9,0.9,4.5v14.9v26.4V907v15.8c0,6.3-5.2,11.5-11.5,11.5h-206.9H209.3H18.5
	c-1,0-1.9-0.1-2.8-0.4c1,4.4,5,7.7,9.7,7.7h208.3h13.7h189.4h18.9h187.8h15.3h195.5h11.2h210.8c1,0,2-0.2,3-0.5h205.1
	c5.5,0,10-4.5,10-10V892v-10.8V246.3V42.8v-10V24C1294.5,18.7,1290.4,14.4,1285.3,14z"/>
<path fill="#CCD6E6" d="M1285.3,14c-1.7-4.1-5.8-7-10.6-7h-206.9H209.3H18.5C12.2,7,7,12.2,7,18.5v14.9v846.2V907v15.8
	c0,5.4,3.7,9.9,8.7,11.1c0.9,0.2,1.8,0.4,2.8,0.4h190.8h858.6h206.9c6.3,0,11.5-5.2,11.5-11.5V907V59.8V33.4V18.5
	C1286.2,16.9,1285.9,15.4,1285.3,14z M1283.2,33.4v26.4V907v15.8c0,4.7-3.8,8.5-8.5,8.5h-206.9H209.3H18.5c-1.1,0-2.1-0.2-3-0.6
	c-3.2-1.2-5.5-4.3-5.5-7.9V907v-27.3V33.4V18.5c0-4.7,3.8-8.5,8.5-8.5h190.8h858.6h206.9c3,0,5.7,1.6,7.2,4c0.8,1.3,1.3,2.8,1.3,4.5
	V33.4z"/>
</svg>
