<?xml version="1.0" encoding="utf-8"?>
<!-- Generator: Adobe Illustrator 24.0.1, SVG Export Plug-In . SVG Version: 6.00 Build 0)  -->
<svg version="1.1" id="Layer_1" xmlns="http://www.w3.org/2000/svg" xmlns:xlink="http://www.w3.org/1999/xlink" x="0px" y="0px"
	 width="1303px" height="951px" viewBox="0 0 1303 951" enable-background="new 0 0 1303 951" xml:space="preserve">
<path fill="#FFFFFF" d="M1267.2,22H36c-7.7,0-14,6.3-14,14v879.3c0,7.7,6.3,14,14,14h1231.2c7.7,0,14-6.3,14-14V36
	C1281.2,28.3,1275,22,1267.2,22z"/>
<path display="none" fill="none" d="M36,22c-7.7,0-14,6.3-14,14v879.3c0,2.5,0.6,4.8,1.8,6.8V45.7c0-12.2,9.8-22,22-22H1274
	c-2-1.1-4.3-1.7-6.7-1.7H36z"/>
<path fill="#EEF1F6" d="M1288.6,25.1c1.7,3.3,2.6,7,2.6,10.9v879.3c0,13.2-10.8,24-24,24H36c-3.9,0-7.6-0.9-10.9-2.6
	C28.2,945,36.3,951,45.8,951H1281c12.2,0,22-9.8,22-22V45.7C1303,36.3,1297,28.2,1288.6,25.1z"/>
<path fill="#CCD6E6" d="M1288.6,25.1c-4-7.8-12.1-13.1-21.4-13.1H36c-13.2,0-24,10.8-24,24v879.3c0,9.3,5.3,17.4,13.1,21.4
	c3.3,1.7,7,2.6,10.9,2.6h1231.2c13.2,0,24-10.8,24-24V36C1291.2,32.1,1290.3,28.4,1288.6,25.1z M1281.2,915.3c0,7.7-6.3,14-14,14H36
	c-5.3,0-9.8-2.9-12.2-7.2c-1.1-2-1.8-4.3-1.8-6.8V36c0-7.7,6.3-14,14-14h1231.2c2.4,0,4.7,0.6,6.7,1.7c4.3,2.4,7.3,7,7.3,12.3V915.3
	z"/>
</svg>
