<?xml version="1.0" encoding="UTF-8"?>
<svg width="41px" height="40px" viewBox="0 0 41 40" version="1.1" xmlns="http://www.w3.org/2000/svg" xmlns:xlink="http://www.w3.org/1999/xlink">
    <title>Group 33</title>
    <g id="♻️Symbols" stroke="none" stroke-width="1" fill="none" fill-rule="evenodd">
        <g id="Group-33">
            <g id="3-bg" transform="translate(0.000000, -0.000000)">
                <circle id="Oval" fill="#00FFB6" cx="20" cy="20" r="20"></circle>
                <path d="M33.2458535,4.89264913 C37.4689555,8.55959305 40.139357,13.9679437 40.139357,20 C40.139357,31.045695 31.185052,40 20.139357,40 C14.1073007,40 8.69895005,37.3295985 5.03200612,33.1064965 C8.54158422,36.1546359 13.1249667,38 18.139357,38 C29.185052,38 38.139357,29.045695 38.139357,18 C38.139357,13.0524491 36.3428607,8.52449243 33.3666055,5.03286734 Z" id="Combined-Shape" fill="#BAC7DD" style="mix-blend-mode: multiply;"></path>
                <path d="M12.1035156,6 C6.36783854,8.97366483 3.5,14.4351066 3.5,22.3843254" id="Path" stroke="#FFFFFF" stroke-width="3" stroke-linecap="round"></path>
            </g>
            <path d="M19.36,24.996 C20.34,24.996 21.1683333,24.7113333 21.845,24.142 C22.5216667,23.5726667 22.86,22.784 22.86,21.776 C22.86,21.0853333 22.6523333,20.495 22.237,20.005 C21.8216667,19.515 21.2826667,19.172 20.62,18.976 L20.62,18.976 L22.454,16.596 L22.454,15 L16.294,15 L16.294,16.806 L20.13,16.806 L18.198,19.326 L18.94,20.446 L19.36,20.446 C19.8546667,20.446 20.2396667,20.5673333 20.515,20.81 C20.7903333,21.0526667 20.928,21.3746667 20.928,21.776 C20.928,22.1866667 20.7903333,22.511 20.515,22.749 C20.2396667,22.987 19.8546667,23.106 19.36,23.106 C18.464,23.106 17.8946667,22.728 17.652,21.972 L17.652,21.972 L16,22.924 C16.2706667,23.6053333 16.707,24.121 17.309,24.471 C17.911,24.821 18.5946667,24.996 19.36,24.996 Z" id="3" fill="#0A224C" fill-rule="nonzero"></path>
        </g>
    </g>
</svg>