<?xml version="1.0" encoding="UTF-8"?>
<svg width="41px" height="40px" viewBox="0 0 41 40" version="1.1" xmlns="http://www.w3.org/2000/svg" xmlns:xlink="http://www.w3.org/1999/xlink">
    <title>number/02</title>
    <g id="number/02" stroke="none" stroke-width="1" fill="none" fill-rule="evenodd">
        <g id="2-bg" transform="translate(0.000000, -0.000000)">
            <circle id="Oval" fill="#00FFB6" cx="20" cy="20" r="20"></circle>
            <path d="M33.2458535,4.89264913 C37.4689555,8.55959305 40.139357,13.9679437 40.139357,20 C40.139357,31.045695 31.185052,40 20.139357,40 C14.1073007,40 8.69895005,37.3295985 5.03200612,33.1064965 C8.54158422,36.1546359 13.1249667,38 18.139357,38 C29.185052,38 38.139357,29.045695 38.139357,18 C38.139357,13.0524491 36.3428607,8.52449243 33.3666055,5.03286734 Z" id="Combined-Shape" fill="#BAC7DD" style="mix-blend-mode: multiply;"></path>
            <path d="M12.1035156,6 C6.36783854,8.97366483 3.5,14.4351066 3.5,22.3843254" id="Path" stroke="#FFFFFF" stroke-width="3" stroke-linecap="round"></path>
        </g>
        <path d="M23.622,24.996 L23.622,23.134 L19.94,23.134 L21.858,21.216 C22.9313333,20.1426667 23.468,19.0973333 23.468,18.08 C23.468,17.1373333 23.1506667,16.3883333 22.516,15.833 C21.8813333,15.2776667 21.1206667,15 20.234,15 C19.5433333,15 18.9086667,15.1773333 18.33,15.532 C17.7513333,15.8866667 17.308,16.4 17,17.072 L18.624,18.024 C18.9786667,17.2586667 19.5246667,16.876 20.262,16.876 C20.6353333,16.876 20.941,16.9926667 21.179,17.226 C21.417,17.4593333 21.536,17.7673333 21.536,18.15 C21.536,18.6726667 21.1626667,19.326 20.416,20.11 C19.3006667,21.258 18.1853333,22.406 17.07,23.554 L17.07,24.996 L23.622,24.996 Z" id="2" fill="#0A224C" fill-rule="nonzero"></path>
    </g>
</svg>