<?xml version="1.0" encoding="utf-8"?>
<!-- Generator: Adobe Illustrator 24.0.1, SVG Export Plug-In . SVG Version: 6.00 Build 0)  -->
<svg version="1.1" id="Layer_1" xmlns="http://www.w3.org/2000/svg" xmlns:xlink="http://www.w3.org/1999/xlink" x="0px" y="0px"
	 width="22px" height="88px" viewBox="0 0 22 88" enable-background="new 0 0 22 88" xml:space="preserve">
<path fill="#FFFFFF" d="M11,0L11,0C4.9,0,0,4.9,0,11s4.9,11,11,11s11-4.9,11-11C22,4.9,17.1,0,11,0z M11,20.7
	c-5.3,0-9.7-4.4-9.7-9.7S5.7,1.3,11,1.3s9.7,4.4,9.7,9.7C20.7,16.3,16.3,20.7,11,20.7z"/>
<path id="Shape_1_" fill="#00FFB6" d="M15,7.4C15,7.4,15,7.4,15,7.4C15,7.4,15,7.4,15,7.4c-0.1-0.2-0.3-0.3-0.4-0.4
	c0,0-0.1,0-0.1-0.1c-0.1-0.1-0.2-0.2-0.4-0.3c0,0,0,0-0.1-0.1c-0.1-0.1-0.3-0.2-0.4-0.3c0,0,0,0-0.1,0c-0.1-0.1-0.3-0.2-0.5-0.2l0,0
	C13,6,12.8,6,12.7,5.9l0,0c-0.2-0.1-0.4-0.1-0.5-0.1h0c-0.2,0-0.3-0.1-0.5-0.1c0,0,0,0,0,0c-0.4,0-0.8,0-1.1,0c0,0,0,0,0,0
	c-0.2,0-0.4,0-0.5,0.1h0c-0.2,0-0.4,0.1-0.5,0.1l0,0C9.2,6,9,6,8.8,6.1c0,0,0,0,0,0C8.6,6.2,8.5,6.3,8.3,6.4c0,0,0,0-0.1,0
	C8.1,6.5,8,6.6,7.9,6.7c0,0,0,0-0.1,0.1C7.7,6.8,7.6,6.9,7.5,7c0,0-0.1,0-0.1,0.1C7.3,7.2,7.2,7.3,7.1,7.4c0,0,0,0,0,0c0,0,0,0,0,0
	c-1.8,2-1.8,5.1,0,7.1c0,0,0,0,0,0c0,0,0,0,0,0c0.1,0.1,0.2,0.2,0.3,0.3c0,0,0.1,0,0.1,0.1c0.1,0.1,0.2,0.2,0.4,0.3c0,0,0,0,0.1,0.1
	c0.1,0.1,0.3,0.2,0.4,0.3c0,0,0,0,0.1,0c0.1,0.1,0.3,0.2,0.5,0.2c0,0,0,0,0,0C9,16,9.2,16,9.3,16.1l0,0c0.2,0.1,0.4,0.1,0.5,0.1h0
	c0.2,0,0.3,0.1,0.5,0.1c0,0,0,0,0,0c0.4,0,0.8,0,1.1,0c0,0,0,0,0,0c0.2,0,0.4,0,0.5-0.1h0c0.2,0,0.4-0.1,0.5-0.1l0,0
	c0.2-0.1,0.3-0.1,0.5-0.2c0,0,0,0,0,0c0.2-0.1,0.3-0.1,0.5-0.2c0,0,0,0,0.1,0c0.1-0.1,0.3-0.2,0.4-0.3c0,0,0,0,0.1-0.1
	c0.1-0.1,0.2-0.2,0.4-0.3c0,0,0.1,0,0.1-0.1c0.1-0.1,0.2-0.2,0.3-0.3c0,0,0,0,0,0c0,0,0,0,0,0C16.8,12.5,16.8,9.5,15,7.4L15,7.4z
	 M14.6,13.9c-0.3-0.2-0.7-0.3-1.1-0.4c0.2-0.7,0.3-1.4,0.3-2.1h1.8C15.6,12.3,15.2,13.2,14.6,13.9z M14.1,14.5
	c-0.1,0.1-0.2,0.2-0.3,0.2c0,0,0,0-0.1,0c-0.1,0.1-0.2,0.1-0.3,0.2l-0.1,0c-0.1,0.1-0.2,0.1-0.3,0.2c0,0,0,0-0.1,0
	c-0.1,0-0.2,0.1-0.3,0.1c0.3-0.4,0.5-0.7,0.6-1.2C13.6,14.2,13.9,14.3,14.1,14.5L14.1,14.5z M8.9,15.1C8.8,15.1,8.7,15,8.6,15
	l-0.1,0c-0.1-0.1-0.2-0.1-0.3-0.2c0,0,0,0-0.1,0c-0.1-0.1-0.2-0.1-0.3-0.2l0,0c0.3-0.1,0.5-0.2,0.8-0.3C8.8,14.6,9,15,9.3,15.3
	C9.2,15.3,9.1,15.2,8.9,15.1C9,15.2,8.9,15.2,8.9,15.1z M6.4,11.4h1.8c0,0.7,0.1,1.4,0.3,2.1c-0.4,0.1-0.7,0.2-1.1,0.4
	C6.8,13.2,6.4,12.3,6.4,11.4z M7.4,8.1c0.3,0.2,0.7,0.3,1.1,0.4c-0.2,0.7-0.3,1.4-0.3,2.1H6.4C6.4,9.7,6.8,8.8,7.4,8.1z M7.9,7.5
	C8,7.5,8.1,7.4,8.2,7.3c0,0,0,0,0.1,0c0.1-0.1,0.2-0.1,0.3-0.2l0.1,0C8.7,7,8.8,6.9,8.9,6.9c0,0,0,0,0.1,0c0.1,0,0.2-0.1,0.3-0.1
	C9,7,8.8,7.4,8.7,7.8C8.4,7.8,8.1,7.7,7.9,7.5L7.9,7.5z M13.1,6.9C13.2,6.9,13.3,7,13.4,7l0.1,0c0.1,0.1,0.2,0.1,0.3,0.2
	c0,0,0,0,0.1,0c0.1,0.1,0.2,0.2,0.3,0.2l0,0c-0.3,0.1-0.5,0.2-0.8,0.3C13.2,7.4,13,7,12.7,6.7C12.8,6.7,12.9,6.8,13.1,6.9
	C13,6.8,13.1,6.8,13.1,6.9z M10.6,8.1c-0.4,0-0.8-0.1-1.3-0.1c0.3-0.8,0.8-1.4,1.3-1.6V8.1z M10.6,8.9v1.8H8.9c0-0.7,0.1-1.3,0.3-2
	C9.6,8.8,10.1,8.8,10.6,8.9L10.6,8.9z M10.6,11.4v1.8c-0.5,0-1,0.1-1.5,0.2c-0.2-0.6-0.3-1.3-0.3-2H10.6z M10.6,13.9v1.7
	c-0.5-0.2-0.9-0.7-1.3-1.6C9.8,13.9,10.2,13.9,10.6,13.9L10.6,13.9z M11.4,13.9c0.4,0,0.8,0.1,1.3,0.1c-0.3,0.8-0.8,1.4-1.3,1.6
	V13.9z M11.4,13.1v-1.8h1.8c0,0.7-0.1,1.3-0.3,2C12.4,13.2,11.9,13.2,11.4,13.1L11.4,13.1z M11.4,10.6V8.8c0.5,0,1-0.1,1.5-0.2
	c0.2,0.6,0.3,1.3,0.3,2H11.4z M11.4,8.1V6.4c0.5,0.2,0.9,0.7,1.3,1.6C12.2,8.1,11.8,8.1,11.4,8.1L11.4,8.1z M13.8,10.6
	c0-0.7-0.1-1.4-0.3-2.1c0.4-0.1,0.7-0.2,1.1-0.4c0.6,0.7,0.9,1.6,1,2.5H13.8z"/>
<path fill="#BAC7DD" d="M11,44L11,44C4.9,44,0,48.9,0,55s4.9,11,11,11s11-4.9,11-11C22,48.9,17.1,44,11,44z M11,64.7
	c-5.3,0-9.7-4.4-9.7-9.7s4.4-9.7,9.7-9.7s9.7,4.4,9.7,9.7C20.7,60.3,16.3,64.7,11,64.7z"/>
<path id="Shape_2_" fill="#00FFB6" d="M15,51.4C15,51.4,15,51.4,15,51.4C15,51.4,15,51.4,15,51.4c-0.1-0.2-0.3-0.3-0.4-0.4
	c0,0-0.1,0-0.1-0.1c-0.1-0.1-0.2-0.2-0.4-0.3c0,0,0,0-0.1-0.1c-0.1-0.1-0.3-0.2-0.4-0.3c0,0,0,0-0.1,0c-0.1-0.1-0.3-0.2-0.5-0.2l0,0
	C13,50,12.8,50,12.7,49.9l0,0c-0.2-0.1-0.4-0.1-0.5-0.1h0c-0.2,0-0.3-0.1-0.5-0.1c0,0,0,0,0,0c-0.4,0-0.8,0-1.1,0c0,0,0,0,0,0
	c-0.2,0-0.4,0-0.5,0.1h0c-0.2,0-0.4,0.1-0.5,0.1l0,0C9.2,50,9,50,8.8,50.1c0,0,0,0,0,0c-0.2,0.1-0.3,0.1-0.5,0.2c0,0,0,0-0.1,0
	c-0.1,0.1-0.3,0.2-0.4,0.3c0,0,0,0-0.1,0.1c-0.1,0.1-0.2,0.2-0.4,0.3c0,0-0.1,0-0.1,0.1c-0.1,0.1-0.2,0.2-0.3,0.3c0,0,0,0,0,0
	c0,0,0,0,0,0c-1.8,2-1.8,5.1,0,7.1c0,0,0,0,0,0c0,0,0,0,0,0c0.1,0.1,0.2,0.2,0.3,0.3c0,0,0.1,0,0.1,0.1c0.1,0.1,0.2,0.2,0.4,0.3
	c0,0,0,0,0.1,0.1c0.1,0.1,0.3,0.2,0.4,0.3c0,0,0,0,0.1,0c0.1,0.1,0.3,0.2,0.5,0.2c0,0,0,0,0,0C9,60,9.2,60,9.3,60.1l0,0
	c0.2,0.1,0.4,0.1,0.5,0.1h0c0.2,0,0.3,0.1,0.5,0.1c0,0,0,0,0,0c0.4,0,0.8,0,1.1,0c0,0,0,0,0,0c0.2,0,0.4,0,0.5-0.1h0
	c0.2,0,0.4-0.1,0.5-0.1l0,0c0.2-0.1,0.3-0.1,0.5-0.2c0,0,0,0,0,0c0.2-0.1,0.3-0.1,0.5-0.2c0,0,0,0,0.1,0c0.1-0.1,0.3-0.2,0.4-0.3
	c0,0,0,0,0.1-0.1c0.1-0.1,0.2-0.2,0.4-0.3c0,0,0.1,0,0.1-0.1c0.1-0.1,0.2-0.2,0.3-0.3c0,0,0,0,0,0c0,0,0,0,0,0
	C16.8,56.5,16.8,53.5,15,51.4L15,51.4z M14.6,57.9c-0.3-0.2-0.7-0.3-1.1-0.4c0.2-0.7,0.3-1.4,0.3-2.1h1.8
	C15.6,56.3,15.2,57.2,14.6,57.9z M14.1,58.5c-0.1,0.1-0.2,0.2-0.3,0.2c0,0,0,0-0.1,0c-0.1,0.1-0.2,0.1-0.3,0.2l-0.1,0
	c-0.1,0.1-0.2,0.1-0.3,0.2c0,0,0,0-0.1,0c-0.1,0-0.2,0.1-0.3,0.1c0.3-0.4,0.5-0.7,0.6-1.2C13.6,58.2,13.9,58.3,14.1,58.5L14.1,58.5z
	 M8.9,59.1C8.8,59.1,8.7,59,8.6,59l-0.1,0c-0.1-0.1-0.2-0.1-0.3-0.2c0,0,0,0-0.1,0c-0.1-0.1-0.2-0.1-0.3-0.2l0,0
	c0.3-0.1,0.5-0.2,0.8-0.3C8.8,58.6,9,59,9.3,59.3C9.2,59.3,9.1,59.2,8.9,59.1C9,59.2,8.9,59.2,8.9,59.1z M6.4,55.4h1.8
	c0,0.7,0.1,1.4,0.3,2.1c-0.4,0.1-0.7,0.2-1.1,0.4C6.8,57.2,6.4,56.3,6.4,55.4z M7.4,52.1c0.3,0.2,0.7,0.3,1.1,0.4
	c-0.2,0.7-0.3,1.4-0.3,2.1H6.4C6.4,53.7,6.8,52.8,7.4,52.1z M7.9,51.5c0.1-0.1,0.2-0.2,0.3-0.2c0,0,0,0,0.1,0
	c0.1-0.1,0.2-0.1,0.3-0.2l0.1,0c0.1-0.1,0.2-0.1,0.3-0.2c0,0,0,0,0.1,0c0.1,0,0.2-0.1,0.3-0.1C9,51,8.8,51.4,8.7,51.8
	C8.4,51.8,8.1,51.7,7.9,51.5L7.9,51.5z M13.1,50.9c0.1,0.1,0.2,0.1,0.3,0.2l0.1,0c0.1,0.1,0.2,0.1,0.3,0.2c0,0,0,0,0.1,0
	c0.1,0.1,0.2,0.2,0.3,0.2l0,0c-0.3,0.1-0.5,0.2-0.8,0.3c-0.2-0.4-0.4-0.8-0.6-1.2C12.8,50.7,12.9,50.8,13.1,50.9
	C13,50.8,13.1,50.8,13.1,50.9z M10.6,52.1c-0.4,0-0.8-0.1-1.3-0.1c0.3-0.8,0.8-1.4,1.3-1.6V52.1z M10.6,52.9v1.8H8.9
	c0-0.7,0.1-1.3,0.3-2C9.6,52.8,10.1,52.8,10.6,52.9L10.6,52.9z M10.6,55.4v1.8c-0.5,0-1,0.1-1.5,0.2c-0.2-0.6-0.3-1.3-0.3-2H10.6z
	 M10.6,57.9v1.7c-0.5-0.2-0.9-0.7-1.3-1.6C9.8,57.9,10.2,57.9,10.6,57.9L10.6,57.9z M11.4,57.9c0.4,0,0.8,0.1,1.3,0.1
	c-0.3,0.8-0.8,1.4-1.3,1.6V57.9z M11.4,57.1v-1.8h1.8c0,0.7-0.1,1.3-0.3,2C12.4,57.2,11.9,57.2,11.4,57.1L11.4,57.1z M11.4,54.6
	v-1.8c0.5,0,1-0.1,1.5-0.2c0.2,0.6,0.3,1.3,0.3,2H11.4z M11.4,52.1v-1.7c0.5,0.2,0.9,0.7,1.3,1.6C12.2,52.1,11.8,52.1,11.4,52.1
	L11.4,52.1z M13.8,54.6c0-0.7-0.1-1.4-0.3-2.1c0.4-0.1,0.7-0.2,1.1-0.4c0.6,0.7,0.9,1.6,1,2.5H13.8z"/>
</svg>
