<?xml version="1.0" encoding="utf-8"?>
<!-- Generator: Adobe Illustrator 24.0.1, SVG Export Plug-In . SVG Version: 6.00 Build 0)  -->
<svg version="1.1" id="Layer_1" xmlns="http://www.w3.org/2000/svg" xmlns:xlink="http://www.w3.org/1999/xlink" x="0px" y="0px"
	 width="22px" height="88px" viewBox="0 0 22 88" enable-background="new 0 0 22 88" xml:space="preserve">
<path fill="#BAC7DD" d="M11,44c-4.5,0-8.2,3.7-8.2,8.2c0,1.5,0.4,2.7,1.2,4l6.4,9.5c0.1,0.2,0.3,0.3,0.5,0.3s0.4-0.1,0.5-0.3
	l6.4-9.5c0.9-1.3,1.2-2.5,1.2-4C19.2,47.7,15.5,44,11,44z M11,45.3c3.8,0,6.9,3.1,6.9,6.9c0,1.3-0.2,2.1-1,3.3L11,64.2l-5.9-8.7
	c-0.8-1.1-1-1.9-1-3.3C4.1,48.4,7.2,45.3,11,45.3z"/>
<path id="Combined-Shape" fill-rule="evenodd" clip-rule="evenodd" fill="#00FFB6" stroke="#00FFB6" stroke-width="0.2" d="M11,49.2
	c1.7,0,3,1.4,3,3c0,1.7-1.4,3-3,3s-3-1.4-3-3C8,50.5,9.3,49.2,11,49.2z M11,50.2c-1.1,0-2,0.9-2,2c0,1.1,0.9,2,2,2s2-0.9,2-2
	C13,51.1,12.1,50.2,11,50.2z"/>
<path fill="#FFFFFF" d="M11,0C6.5,0,2.8,3.7,2.8,8.2c0,1.5,0.4,2.7,1.2,4l6.4,9.5c0.1,0.2,0.3,0.3,0.5,0.3s0.4-0.1,0.5-0.3l6.4-9.5
	c0.9-1.3,1.2-2.5,1.2-4C19.2,3.7,15.5,0,11,0z M11,1.3c3.8,0,6.9,3.1,6.9,6.9c0,1.3-0.2,2.1-1,3.3L11,20.2l-5.9-8.7
	c-0.8-1.1-1-1.9-1-3.3C4.1,4.4,7.2,1.3,11,1.3z"/>
<path id="Combined-Shape_1_" fill-rule="evenodd" clip-rule="evenodd" fill="#00FFB6" stroke="#00FFB6" stroke-width="0.2" d="
	M11,5.1c1.7,0,3.1,1.4,3.1,3.1c0,1.7-1.4,3.1-3.1,3.1S7.9,9.9,7.9,8.2C7.9,6.5,9.3,5.1,11,5.1z M11,6.1c-1.1,0-2,0.9-2,2
	c0,1.1,0.9,2,2,2s2-0.9,2-2C13,7,12.1,6.1,11,6.1z"/>
</svg>
