<?xml version="1.0" encoding="utf-8"?>
<!-- Generator: Adobe Illustrator 24.0.1, SVG Export Plug-In . SVG Version: 6.00 Build 0)  -->
<svg version="1.1" id="Layer_1" xmlns="http://www.w3.org/2000/svg" xmlns:xlink="http://www.w3.org/1999/xlink" x="0px" y="0px"
	 width="22px" height="88px" viewBox="0 0 22 88" enable-background="new 0 0 22 88" xml:space="preserve">
<path id="Shape" fill="#FFFFFF" d="M11,0C4.9,0,0,4.9,0,11s4.9,11,11,11s11-4.9,11-11S17.1,0,11,0z M11,20.7c-1.9,0-3.8-0.6-5.3-1.6
	c1-2.1,3.1-3.4,5.3-3.4c2.2,0,4.2,1.3,5.3,3.4C14.8,20.1,12.9,20.7,11,20.7z M17.4,18.3c-1.3-2.4-3.7-4-6.4-4c-2.6,0-5.1,1.5-6.4,4
	c-2-1.8-3.3-4.4-3.3-7.3c0-5.3,4.3-9.7,9.7-9.7s9.7,4.3,9.7,9.7C20.7,13.9,19.4,16.5,17.4,18.3z"/>
<path id="Combined-Shape" fill="#00FFB6" d="M11,4.8c2.3,0,4.2,1.9,4.2,4.2c0,2.3-1.9,4.2-4.2,4.2S6.8,11.4,6.8,9
	C6.8,6.7,8.7,4.8,11,4.8z M11,6.1C9.4,6.1,8.1,7.4,8.1,9S9.4,12,11,12s2.9-1.3,2.9-2.9S12.6,6.1,11,6.1z"/>
<path id="Shape_1_" fill="#BAC7DD" d="M11,44C4.9,44,0,48.9,0,55s4.9,11,11,11s11-4.9,11-11S17.1,44,11,44z M11,64.7
	c-1.9,0-3.8-0.6-5.3-1.6c1-2.1,3.1-3.4,5.3-3.4c2.2,0,4.2,1.3,5.3,3.4C14.8,64.1,12.9,64.7,11,64.7z M17.4,62.3
	c-1.3-2.4-3.7-4-6.4-4c-2.6,0-5.1,1.5-6.4,4c-2-1.8-3.3-4.4-3.3-7.3c0-5.3,4.3-9.7,9.7-9.7s9.7,4.3,9.7,9.7
	C20.7,57.9,19.4,60.5,17.4,62.3z"/>
<path id="Combined-Shape_1_" fill="#00FFB6" d="M11,48.8c2.3,0,4.2,1.9,4.2,4.2c0,2.3-1.9,4.2-4.2,4.2S6.8,55.4,6.8,53
	C6.8,50.7,8.7,48.8,11,48.8z M11,50.1c-1.6,0-2.9,1.3-2.9,2.9c0,1.6,1.3,2.9,2.9,2.9s2.9-1.3,2.9-2.9C13.9,51.4,12.6,50.1,11,50.1z"
	/>
</svg>
