<?xml version="1.0" encoding="utf-8"?>
<!-- Generator: Adobe Illustrator 24.0.1, SVG Export Plug-In . SVG Version: 6.00 Build 0)  -->
<svg version="1.1" id="Layer_1" xmlns="http://www.w3.org/2000/svg" xmlns:xlink="http://www.w3.org/1999/xlink" x="0px" y="0px"
	 width="24px" height="24px" viewBox="0 0 24 24" enable-background="new 0 0 24 24" xml:space="preserve">
<path id="Combined-Shape" fill="#5877AC" d="M24,0v24H0V0H24z M8.69,5.41H4.02v0.27L5.52,7.5c0.15,0.13,0.22,0.33,0.2,0.53l0,0v7.13
	c0.04,0.26-0.04,0.52-0.22,0.71l0,0l-1.69,2.05v0.27h4.8v-0.27l-1.69-2.05c-0.18-0.19-0.27-0.45-0.23-0.71l0,0V8.99l4.22,9.2h0.49
	l3.62-9.2l0,7.42c0,0.12-0.02,0.17-0.13,0.28l0,0l-1.3,1.26v0.27h6.32v-0.27l-1.26-1.23c-0.11-0.08-0.17-0.22-0.14-0.36l0,0V7.28
	C18.48,7.14,18.54,7,18.65,6.92l0,0l1.29-1.23V5.41h-4.46l-3.18,7.92L8.69,5.41z"/>
</svg>
