<?xml version="1.0" encoding="utf-8"?>
<!-- Generator: Adobe Illustrator 24.0.1, SVG Export Plug-In . SVG Version: 6.00 Build 0)  -->
<svg version="1.1" id="Layer_1" xmlns="http://www.w3.org/2000/svg" xmlns:xlink="http://www.w3.org/1999/xlink" x="0px" y="0px"
	 width="40px" height="40px" viewBox="0 0 40 40" enable-background="new 0 0 40 40" xml:space="preserve">
<title>Group 60</title>
<desc>Created with Sketch.</desc>
<path fill="#00FFB6" d="M18.4,39.9c-0.5,0-1-0.1-1.5-0.2C17.4,39.8,17.9,39.9,18.4,39.9z"/>
<path fill="#00FFB6" d="M5,33.1c3.5,3,8.1,4.9,13.1,4.9c11,0,19.9-9,19.9-20c0-4.8-1.7-9.1-4.4-12.6C30,2.1,25.2,0,19.9,0
	C8.9,0,0,9,0,20c0,9.9,7.2,18.2,16.7,19.7C12.1,38.9,8,36.5,5,33.1z"/>
<path fill="#00FFB6" d="M19.9,40C19.9,40,20,40,19.9,40c0,0-0.1,0-0.2,0C19.8,40,19.9,40,19.9,40z"/>
<path fill="#BAC7DD" d="M16.9,39.7c-0.1,0-0.1,0-0.2,0C16.8,39.7,16.9,39.7,16.9,39.7z"/>
<path fill="#BAC7DD" d="M19.8,40c-0.5,0-0.9,0-1.4-0.1C18.8,40,19.3,40,19.8,40z"/>
<path fill="#BAC7DD" d="M33.1,4.9L33.3,5c0.1,0.1,0.2,0.3,0.3,0.4c3.9,3.6,6.3,8.8,6.3,14.6c0,11-8.9,20-19.9,20c0,0,0.1,0,0.1,0
	c11,0,19.9-9,19.9-20C40,14,37.3,8.6,33.1,4.9z"/>
<path fill="#BAC7DD" d="M39.9,20c0-5.7-2.4-10.9-6.3-14.6C36.3,8.9,38,13.2,38,18c0,11-8.9,20-19.9,20c-5,0-9.6-1.8-13.1-4.9
	c3,3.4,7.1,5.8,11.7,6.6c0.1,0,0.1,0,0.2,0c0.5,0.1,1,0.1,1.5,0.2c0.5,0,0.9,0.1,1.4,0.1c0.1,0,0.1,0,0.2,0C31,40,39.9,31,39.9,20z"
	/>
<path fill="#FFFFFF" d="M3.5,23.9c-0.8,0-1.5-0.7-1.5-1.5c0-8.5,3.2-14.5,9.4-17.7c0.7-0.4,1.6-0.1,2,0.6c0.4,0.7,0.1,1.6-0.6,2
	C7.5,10,5,15,5,22.4C5,23.2,4.3,23.9,3.5,23.9z"/>
</svg>
