<?xml version="1.0" encoding="utf-8"?>
<!-- Generator: Adobe Illustrator 24.0.2, SVG Export Plug-In . SVG Version: 6.00 Build 0)  -->
<svg version="1.1" id="Layer_1" xmlns="http://www.w3.org/2000/svg" xmlns:xlink="http://www.w3.org/1999/xlink" x="0px" y="0px"
	 width="22px" height="88px" viewBox="0 0 22 88" enable-background="new 0 0 22 88" xml:space="preserve">
<g>
	<path fill="#FFFFFF" d="M11,22C4.9,22,0,17.1,0,11S4.9,0,11,0s11,4.9,11,11S17.1,22,11,22z M11,1.4c-5.3,0-9.6,4.3-9.6,9.6
		c0,5.3,4.3,9.6,9.6,9.6c5.3,0,9.6-4.3,9.6-9.6C20.6,5.7,16.3,1.4,11,1.4z"/>
	
		<polygon id="Triangle" opacity="0.9" fill-rule="evenodd" clip-rule="evenodd" fill="#00FFB6" enable-background="new    " points="
		15,11 9,14 9,8 	"/>
</g>
<g>
	<path fill="#BAC7DD" d="M11,66C4.9,66,0,61.1,0,55s4.9-11,11-11s11,4.9,11,11S17.1,66,11,66z M11,45.4c-5.3,0-9.6,4.3-9.6,9.6
		c0,5.3,4.3,9.6,9.6,9.6c5.3,0,9.6-4.3,9.6-9.6C20.6,49.7,16.3,45.4,11,45.4z"/>
	
		<polygon id="Triangle_1_" opacity="0.9" fill-rule="evenodd" clip-rule="evenodd" fill="#00FFB6" enable-background="new    " points="
		15,55 9,58 9,52 	"/>
</g>
</svg>
