<?xml version="1.0" encoding="UTF-8"?>
<svg width="142px" height="36px" viewBox="0 0 142 36" version="1.1" xmlns="http://www.w3.org/2000/svg" xmlns:xlink="http://www.w3.org/1999/xlink">
    <title>Group 15</title>
    <defs>
        <polygon id="path-1" points="0 0.6934 14.9159 0.6934 14.9159 21.4324 0 21.4324"></polygon>
        <polygon id="path-3" points="0 34 141.733 34 141.733 0.77 0 0.77"></polygon>
    </defs>
    <g id="♻️Symbols" stroke="none" stroke-width="1" fill="none" fill-rule="evenodd">
        <g id="Group-15">
            <path d="M128.0268,1.0002 L121.5378,2.4152 L112.0728,24.5492 L109.8938,29.6602 L130.3028,33.3302 L135.3418,34.2302 L141.7328,32.4342 L130.6378,6.9902 L128.0268,1.0002 Z M122.2598,3.0762 L127.5558,1.9222 L129.6818,6.7992 L124.4038,8.0142 L122.2598,3.0762 Z M113.0448,24.3122 L121.7588,3.9322 L123.7328,8.4802 L116.6128,24.9232 L113.0448,24.3122 Z M124.7268,8.7612 L130.0068,7.5452 L140.6318,31.9132 L135.4078,33.3812 L124.7268,8.7612 Z M130.4438,32.5432 L130.3978,32.5342 L122.2968,13.8092 L124.1688,9.4862 L134.4848,33.2642 L130.4438,32.5432 Z M121.8608,14.8162 L124.2958,20.4442 L123.0068,23.3782 L117.5468,24.7802 L121.8608,14.8162 Z M123.8678,23.4072 L124.7288,21.4462 L125.7098,23.7132 L123.8678,23.4072 Z M118.7708,25.2922 L123.3138,24.1252 L126.0878,24.5892 L127.0018,26.7012 L118.7708,25.2922 Z M111.0218,29.0492 L112.7218,25.0682 L127.3808,27.5782 L129.4528,32.3642 L111.0218,29.0492 Z" id="Fill-1" fill="#0A224C"></path>
            <g id="Group-14" transform="translate(0.000000, 0.230000)">
                <g id="Group-4" transform="translate(0.000000, 8.000000)">
                    <mask id="mask-2" fill="white">
                        <use xlink:href="#path-1"></use>
                    </mask>
                    <g id="Clip-3"></g>
                    <path d="M5.0169,0.6934 L5.0169,9.0784 L5.0729,9.0784 C6.2319,7.5354 7.6369,6.8164 9.5959,6.8164 C13.1779,6.8164 14.9159,9.1894 14.9159,12.7734 L14.9159,21.4324 L9.8989,21.4324 L9.8989,14.1804 C9.8989,12.5254 9.6499,10.8174 7.6369,10.8174 C5.6529,10.8174 5.0169,12.5254 5.0169,14.1804 L5.0169,21.4324 L-0.0001,21.4324 L-0.0001,0.6934 L5.0169,0.6934 Z" id="Fill-2" fill="#0A224C" mask="url(#mask-2)"></path>
                </g>
                <path d="M27.2689,20.3047 C27.0199,18.9537 25.7799,18.0697 24.4279,18.0697 C22.9669,18.0697 21.7539,18.8437 21.4499,20.3047 L27.2689,20.3047 Z M31.9279,23.2007 L21.3679,23.2007 C21.3679,25.2397 22.4439,26.3427 24.5119,26.3427 C25.5869,26.3427 26.3589,25.9847 26.9109,25.0477 L31.7359,25.0477 C30.9349,28.3837 27.7649,29.9007 24.5399,29.9007 C19.8519,29.9007 16.3499,27.2537 16.3499,22.3737 C16.3499,17.6577 19.5749,14.8167 24.1809,14.8167 C29.0879,14.8167 31.9279,17.8507 31.9279,22.6757 L31.9279,23.2007 Z" id="Fill-5" fill="#0A224C"></path>
                <mask id="mask-4" fill="white">
                    <use xlink:href="#path-3"></use>
                </mask>
                <g id="Clip-8"></g>
                <polygon id="Fill-7" fill="#0A224C" mask="url(#mask-4)" points="33.39 29.431 38.407 29.431 38.407 8.692 33.39 8.692"></polygon>
                <polygon id="Fill-9" fill="#0A224C" mask="url(#mask-4)" points="47.9271 22.5396 51.2921 15.2856 56.9171 15.2856 49.5261 29.4316 46.3271 29.4316 38.9111 15.2856 44.5351 15.2856"></polygon>
                <path d="M66.5956,20.3047 C66.3486,18.9537 65.1086,18.0697 63.7566,18.0697 C62.2956,18.0697 61.0816,18.8437 60.7786,20.3047 L66.5956,20.3047 Z M71.2566,23.2007 L60.6956,23.2007 C60.6956,25.2397 61.7716,26.3427 63.8386,26.3427 C64.9146,26.3427 65.6866,25.9847 66.2376,25.0477 L71.0626,25.0477 C70.2646,28.3837 67.0926,29.9007 63.8676,29.9007 C59.1816,29.9007 55.6776,27.2537 55.6776,22.3737 C55.6776,17.6577 58.9046,14.8167 63.5086,14.8167 C68.4156,14.8167 71.2566,17.8507 71.2566,22.6757 L71.2566,23.2007 Z" id="Fill-10" fill="#0A224C" mask="url(#mask-4)"></path>
                <polygon id="Fill-11" fill="#0A224C" mask="url(#mask-4)" points="78.6571 29.4322 73.6391 29.4322 73.6391 19.4242 72.0121 19.4242 72.0121 15.2862 73.6391 15.2862 73.6391 11.0402 78.6571 11.0402 78.6571 15.2862 81.4971 15.2862 81.4971 19.4242 78.6571 19.4242"></polygon>
                <path d="M82.448,29.431 L87.468,29.431 L87.468,15.285 L82.448,15.285 L82.448,29.431 Z M87.77,10.819 C87.77,12.363 86.504,13.63 84.959,13.63 C83.416,13.63 82.146,12.363 82.146,10.819 C82.146,9.275 83.416,8.007 84.959,8.007 C86.504,8.007 87.77,9.275 87.77,10.819 L87.77,10.819 Z" id="Fill-12" fill="#0A224C" mask="url(#mask-4)"></path>
                <path d="M94.1131,22.3736 C94.1131,24.1656 95.2971,25.5436 97.3381,25.5436 C99.3781,25.5436 100.5631,24.1656 100.5631,22.3736 C100.5631,20.6366 99.3781,19.1746 97.3381,19.1746 C95.2971,19.1746 94.1131,20.6366 94.1131,22.3736 L94.1131,22.3736 Z M105.4181,29.4316 L100.3971,29.4316 L100.3971,27.8586 L100.3431,27.8586 C99.4611,29.2666 97.7241,29.8996 96.0691,29.8996 C91.8791,29.8996 88.9271,26.3976 88.9271,22.3456 C88.9271,18.2906 91.8241,14.8166 96.0151,14.8166 C97.6401,14.8166 99.3491,15.4246 100.3971,16.6656 L100.3971,15.2856 L105.4181,15.2856 L105.4181,29.4316 Z" id="Fill-13" fill="#0A224C" mask="url(#mask-4)"></path>
            </g>
        </g>
    </g>
</svg>