<?xml version="1.0" encoding="utf-8"?>
<!-- Generator: Adobe Illustrator 24.0.1, SVG Export Plug-In . SVG Version: 6.00 Build 0)  -->
<svg version="1.1" id="Layer_1" xmlns="http://www.w3.org/2000/svg" xmlns:xlink="http://www.w3.org/1999/xlink" x="0px" y="0px"
	 width="1303px" height="951px" viewBox="0 0 1303 951" enable-background="new 0 0 1303 951" xml:space="preserve">
<path display="none" fill="none" d="M36,22c-7.7,0-14,6.3-14,14v879.3c0,2.5,0.6,4.8,1.8,6.8V45.7c0-12.2,9.8-22,22-22H1274
	c-2-1.1-4.3-1.7-6.7-1.7H36z"/>
<path fill-rule="evenodd" clip-rule="evenodd" fill="#DFE5EE" d="M1293,18h-193.9H997H322H216.1H26c-5.5,0-10,4.5-10,10v33.8V143
	v683v68.1V941c0,5.5,4.5,10,10,10h190.1H322h675h102.1H1293c5.5,0,10-4.5,10-10v-46.9V826V143V61.8V28C1303,22.5,1298.5,18,1293,18z
	"/>
<path fill-rule="evenodd" clip-rule="evenodd" fill="#FFFFFF" d="M1285,9h-114.4H989H314H192.5H18C12.5,9,8,13.5,8,19v47.3V134v683
	v83.5V932c0,5.5,4.5,10,10,10h174.5H314h675h181.6H1285c5.5,0,10-4.5,10-10v-99.5V817V134V98V19C1295,13.5,1290.5,9,1285,9z"/>
</svg>
