<?xml version="1.0" encoding="utf-8"?>
<!-- Generator: Adobe Illustrator 24.0.0, SVG Export Plug-In . SVG Version: 6.00 Build 0)  -->
<svg version="1.1" id="Layer_1" xmlns="http://www.w3.org/2000/svg" xmlns:xlink="http://www.w3.org/1999/xlink" x="0px" y="0px"
	 width="20px" height="13.22px" viewBox="0 0 20 13.22" enable-background="new 0 0 20 13.22" xml:space="preserve">
<title>Shape Copy</title>
<desc>Created with Sketch.</desc>
<g id="_x30_4.Holding-page">
	<g id="D_Holding_03" transform="translate(-360.000000, -505.000000)">
		<g id="Group-2" transform="translate(67.000000, 287.000000)">
			<g id="Components_x2F_Field_x2F_Holding_x2F_mail_x2F_" transform="translate(0.000000, 197.000000)">
				<g id="Field">
					<path id="Shape-Copy" fill="#FFFFFF" d="M293,21.53c0-0.29,0.24-0.53,0.47-0.53h19.06c0.29,0,0.47,0.24,0.47,0.53v10.68
						c0,1.12-0.88,2.01-2.01,2.01h-15.99c-1.12,0-2.01-0.88-2.01-2.01V21.53z M312,22H294v0.29l7.96,6.08
						c0.59,0.47,1.47,0.47,2.12,0L312,22.3V22z M294,23.54v8.67c0,0.12,0,0.24,0.06,0.35l5.6-4.72L294,23.54z M294.83,33.21
						c0.06,0,0.12,0,0.18,0h15.99c0.06,0,0.18,0,0.24,0l-5.66-4.72l-0.88,0.65c-1,0.77-2.36,0.77-3.36,0l-0.88-0.65L294.83,33.21z
						 M311.94,32.56c0.06-0.12,0.06-0.24,0.06-0.35v-8.67l-5.6,4.31L311.94,32.56z"/>
				</g>
			</g>
		</g>
	</g>
</g>
</svg>
