<?xml version="1.0" encoding="UTF-8"?>
<svg width="41px" height="40px" viewBox="0 0 41 40" version="1.1" xmlns="http://www.w3.org/2000/svg" xmlns:xlink="http://www.w3.org/1999/xlink">
    <title>Group 35</title>
    <g id="♻️Symbols" stroke="none" stroke-width="1" fill="none" fill-rule="evenodd">
        <g id="Group-35">
            <g id="1-bg" transform="translate(0.000000, -0.000000)">
                <circle id="Oval" fill="#00FFB6" cx="20" cy="20" r="20"></circle>
                <path d="M33.2458535,4.89264913 C37.4689555,8.55959305 40.139357,13.9679437 40.139357,20 C40.139357,31.045695 31.185052,40 20.139357,40 C14.1073007,40 8.69895005,37.3295985 5.03200612,33.1064965 C8.54158422,36.1546359 13.1249667,38 18.139357,38 C29.185052,38 38.139357,29.045695 38.139357,18 C38.139357,13.0524491 36.3428607,8.52449243 33.3666055,5.03286734 Z" id="Combined-Shape" fill="#BAC7DD" style="mix-blend-mode: multiply;"></path>
                <path d="M12.1035156,6 C6.36783854,8.97366483 3.5,14.4351066 3.5,22.3843254" id="Path" stroke="#FFFFFF" stroke-width="3" stroke-linecap="round"></path>
            </g>
            <polygon id="1" fill="#0A224C" fill-rule="nonzero" points="21.256 24.8 21.256 15 19.576 15 17 15.91 17.476 17.562 19.324 17.044 19.324 18.3493542 19.324 24.8"></polygon>
        </g>
    </g>
</svg>