<?xml version="1.0" encoding="utf-8"?>
<!-- Generator: Adobe Illustrator 24.0.1, SVG Export Plug-In . SVG Version: 6.00 Build 0)  -->
<svg version="1.1" id="Layer_1" xmlns="http://www.w3.org/2000/svg" xmlns:xlink="http://www.w3.org/1999/xlink" x="0px" y="0px"
	 width="24px" height="24px" viewBox="0 0 24 24" enable-background="new 0 0 24 24" xml:space="preserve">
<path fill="#5877AC" d="M23.93,7.05c-0.06-1.28-0.26-2.15-0.56-2.91c-0.31-0.79-0.72-1.46-1.38-2.13c-0.67-0.67-1.34-1.08-2.13-1.38
	c-0.76-0.3-1.64-0.5-2.91-0.56C15.84,0.02,15.38,0,13.16,0h-2.32C8.62,0,8.16,0.02,7.05,0.07C5.77,0.13,4.9,0.33,4.14,0.63
	C3.35,0.94,2.68,1.35,2.01,2.01C1.35,2.68,0.94,3.35,0.63,4.14c-0.3,0.76-0.5,1.64-0.56,2.91C0.02,8.16,0,8.62,0,10.84v2.32
	c0,2.22,0.02,2.68,0.07,3.79c0.06,1.28,0.26,2.15,0.56,2.91c0.31,0.79,0.72,1.46,1.38,2.13c0.67,0.67,1.34,1.08,2.13,1.38
	c0.76,0.3,1.64,0.5,2.91,0.56C8.33,23.99,8.74,24,12,24c3.26,0,3.67-0.01,4.95-0.07c1.28-0.06,2.15-0.26,2.91-0.56
	c0.79-0.31,1.46-0.72,2.13-1.38c0.67-0.67,1.08-1.34,1.38-2.13c0.3-0.76,0.5-1.64,0.56-2.91C23.99,15.67,24,15.26,24,12
	C24,8.74,23.99,8.33,23.93,7.05z M21.84,13.14c0,2.18-0.02,2.61-0.07,3.71c-0.05,1.17-0.25,1.81-0.41,2.23
	c-0.22,0.56-0.48,0.96-0.9,1.38c-0.42,0.42-0.82,0.68-1.38,0.9c-0.42,0.16-1.06,0.36-2.23,0.41c-1.1,0.05-1.53,0.07-3.71,0.07h-2.28
	c-2.18,0-2.61-0.02-3.71-0.07c-1.17-0.05-1.81-0.25-2.23-0.41c-0.56-0.22-0.96-0.48-1.38-0.9c-0.42-0.42-0.68-0.82-0.9-1.38
	c-0.16-0.42-0.36-1.06-0.41-2.23c-0.05-1.1-0.07-1.53-0.07-3.71v-2.28c0-2.18,0.02-2.61,0.07-3.71c0.05-1.17,0.25-1.81,0.41-2.23
	c0.22-0.56,0.48-0.96,0.9-1.38s0.82-0.68,1.38-0.9c0.42-0.16,1.06-0.36,2.23-0.41c1.1-0.05,1.53-0.07,3.71-0.07h2.28
	c2.18,0,2.61,0.02,3.71,0.07c1.17,0.05,1.81,0.25,2.23,0.41c0.56,0.22,0.96,0.48,1.38,0.9c0.42,0.42,0.68,0.82,0.9,1.38
	c0.16,0.42,0.36,1.06,0.41,2.23c0.05,1.1,0.07,1.53,0.07,3.71V13.14z"/>
<path fill="#5877AC" d="M12,5.84C8.6,5.84,5.84,8.6,5.84,12c0,3.4,2.76,6.16,6.16,6.16c3.4,0,6.16-2.76,6.16-6.16
	C18.16,8.6,15.4,5.84,12,5.84z M12,16c-2.21,0-4-1.79-4-4c0-2.21,1.79-4,4-4c2.21,0,4,1.79,4,4C16,14.21,14.21,16,12,16z"/>
<path fill="#5877AC" d="M18.4,4.15c-0.8,0-1.44,0.64-1.44,1.44c0,0.8,0.64,1.44,1.44,1.44c0.8,0,1.44-0.64,1.44-1.44
	C19.84,4.8,19.2,4.15,18.4,4.15z"/>
</svg>
