<?xml version="1.0" encoding="utf-8"?>
<!-- Generator: Adobe Illustrator 24.0.1, SVG Export Plug-In . SVG Version: 6.00 Build 0)  -->
<svg version="1.1" id="Layer_1" xmlns="http://www.w3.org/2000/svg" xmlns:xlink="http://www.w3.org/1999/xlink" x="0px" y="0px"
	 width="24px" height="24px" viewBox="0 0 24 24" enable-background="new 0 0 24 24" xml:space="preserve">
<path fill="#5877AC" d="M22.22,0H1.77C0.79,0,0,0.77,0,1.73v20.54C0,23.22,0.79,24,1.77,24h20.45C23.2,24,24,23.22,24,22.27V1.73
	C24,0.77,23.2,0,22.22,0z M7.12,20.45H3.56V9h3.57V20.45z M5.34,7.42c-1.14,0-2.06-0.93-2.07-2.06c0-1.14,0.92-2.06,2.06-2.06
	c0,0,0,0,0,0c1.14,0,2.06,0.92,2.06,2.06S6.48,7.42,5.34,7.42z M20.46,20.45H16.9v-5.57c0-1.33-0.02-3.04-1.85-3.04
	c-1.85,0-2.14,1.45-2.14,2.94v5.67H9.36V9H9.35l0.01,0v0h3.41v1.57h0.05c0.48-0.9,1.64-1.85,3.38-1.85c3.6,0,4.27,2.37,4.27,5.46
	V20.45z"/>
<polygon fill="#FFFFFF" points="9.35,9 9.36,9 9.36,8.99 "/>
</svg>
