<?xml version="1.0" encoding="utf-8"?>
<!-- Generator: Adobe Illustrator 23.1.0, SVG Export Plug-In . SVG Version: 6.00 Build 0)  -->
<svg version="1.1" id="Layer_1" xmlns="http://www.w3.org/2000/svg" xmlns:xlink="http://www.w3.org/1999/xlink" x="0px" y="0px"
	 width="260px" height="108.2px" viewBox="0 0 260 108.2" enable-background="new 0 0 260 108.2" xml:space="preserve">
<g>
	<path fill="#FFFFFF" d="M41.6,64.6L41.6,64.6c-1.2,3.7-4.1,6.3-7.3,6.3c-4.3,0-8-4.7-8-10.2h0v-15l-8.9-6.6H46
		c2.7,0,4.9-2.1,5.2-4.7V24.1H26.3V4.8H16c-2.9,0-5.3,2.4-5.3,5.3c0,0,0,0.1,0,0.1l-0.1,13.9H5c-2.8,0.2-5,2.5-5,5.3v9.7h10.6v21.6
		c0,14.1,10.6,25.6,23.7,25.6S58,74.7,58,60.7H46.3C44.1,60.8,42.2,62.4,41.6,64.6z"/>
	<path fill="#FFFFFF" d="M183.2,5.3L183.2,5.3v79.3h9.9c2.9,0,5.3-2.4,5.3-5.3V0h-9.9C185.6,0,183.2,2.4,183.2,5.3z"/>
	<path fill="#FFFFFF" d="M113.2,25.9c-2.9,0-5.3,2.4-5.3,5.3v1.6c-4.5-5.7-10.9-8.6-19-8.6c-7.8,0-14.5,3-20,9s-8.3,13.3-8.3,22
		c0,8.7,2.8,16,8.3,22s12.2,9,20,9c8.2,0,14.5-2.9,19-8.6v6.9h10.7c2.5-0.5,4.3-2.6,4.3-5.2V25.8h-9.5
		C113.3,25.9,113.3,25.9,113.2,25.9z M103.3,67.1c-3.1,3.1-6.9,4.6-11.6,4.6s-8.5-1.5-11.6-4.6c-3-3.1-4.6-7.1-4.6-11.9
		s1.5-8.8,4.6-11.9c3-3.1,6.9-4.6,11.6-4.6s8.5,1.6,11.6,4.6c3.1,3.1,4.6,7.1,4.6,11.9C107.9,60,106.3,64,103.3,67.1z"/>
	<polygon fill="#FFFFFF" points="178.5,25.9 162.3,25.9 152.2,41.7 142.2,25.9 126,25.9 144.1,54.5 125,84.7 141.2,84.7 152.2,67.4 
		163.2,84.7 179.4,84.7 160.3,54.5 	"/>
	<path fill="#FFFFFF" d="M247.6,25.9c-2.4,0-4.4,1.5-5,3.6c0,0,0,0,0,0l-10.8,33.4l-13.9-37h-8.4c-2.9,0-5.3,2.4-5.3,5.3
		c0,0.7,0.1,1.4,0.4,2c0,0,0,0,0,0.1l19.6,50.6l-8.2,24.3h12.3c2.3,0,4.3-1.5,5-3.6c0,0,0,0,0,0L260,25.9H247.6z"/>
</g>
</svg>
