<?xml version="1.0" encoding="utf-8"?>
<!-- Generator: Adobe Illustrator 24.0.1, SVG Export Plug-In . SVG Version: 6.00 Build 0)  -->
<svg version="1.1" id="Layer_1" xmlns="http://www.w3.org/2000/svg" xmlns:xlink="http://www.w3.org/1999/xlink" x="0px" y="0px"
	 width="29px" height="29px" viewBox="0 0 29 29" enable-background="new 0 0 29 29" xml:space="preserve">
<title>Group 60</title>
<desc>Created with Sketch.</desc>
<path fill="#00FFB6" d="M13.3,28.9c-0.4,0-0.7-0.1-1.1-0.1C12.6,28.9,13,28.9,13.3,28.9z"/>
<path fill="#00FFB6" d="M3.6,24c2.5,2.2,5.9,3.6,9.5,3.6c8,0,14.4-6.5,14.4-14.5c0-3.5-1.2-6.6-3.2-9.1C21.8,1.5,18.3,0,14.4,0
	C6.5,0,0,6.5,0,14.5c0,7.2,5.2,13.2,12.1,14.3C8.8,28.2,5.8,26.5,3.6,24z"/>
<path fill="#00FFB6" d="M14.4,29C14.4,29,14.5,29,14.4,29c0,0-0.1,0-0.1,0C14.4,29,14.4,29,14.4,29z"/>
<path fill="#BAC7DD" d="M12.3,28.8c-0.1,0-0.1,0-0.1,0C12.2,28.8,12.3,28.8,12.3,28.8z"/>
<path fill="#BAC7DD" d="M14.4,29c-0.4,0-0.7,0-1-0.1C13.6,29,14,29,14.4,29z"/>
<path fill="#BAC7DD" d="M24,3.6l0.1,0.1c0.1,0.1,0.1,0.2,0.2,0.3c2.8,2.6,4.6,6.4,4.6,10.6c0,8-6.5,14.5-14.4,14.5h0.1
	c8,0,14.4-6.5,14.4-14.5C29,10.1,27,6.2,24,3.6z"/>
<path fill="#BAC7DD" d="M28.9,14.5c0-4.1-1.7-7.9-4.6-10.6c2,2.5,3.2,5.7,3.2,9.1c0,8-6.5,14.5-14.4,14.5c-3.6,0-7-1.3-9.5-3.6
	c2.2,2.5,5.1,4.2,8.5,4.8c0.1,0,0.1,0,0.1,0c0.4,0.1,0.7,0.1,1.1,0.1c0.4,0,0.7,0.1,1,0.1c0.1,0,0.1,0,0.1,0
	C22.5,29,28.9,22.5,28.9,14.5z"/>
<path fill="#FFFFFF" d="M2.5,17.3c-0.6,0-1.1-0.5-1.1-1.1c0-6.2,2.3-10.5,6.8-12.8c0.5-0.3,1.2-0.1,1.5,0.4C10,4.3,9.8,5,9.3,5.3
	c-3.8,2-5.7,5.6-5.7,10.9C3.6,16.8,3.1,17.3,2.5,17.3z"/>
<polygon fill="#FFFFFF" points="19,9.6 12.9,15.7 11,13.8 9.6,15.1 12.9,18.5 20.4,11 "/>
</svg>
