<?xml version="1.0" encoding="utf-8"?>
<!-- Generator: Adobe Illustrator 24.0.1, SVG Export Plug-In . SVG Version: 6.00 Build 0)  -->
<svg version="1.1" id="Layer_1" xmlns="http://www.w3.org/2000/svg" xmlns:xlink="http://www.w3.org/1999/xlink" x="0px" y="0px"
	 width="24px" height="24px" viewBox="0 0 24 24" enable-background="new 0 0 24 24" xml:space="preserve">
<path id="Path" fill="#5877AC" d="M7.54,21.69c9.06,0,14.01-7.46,14.01-13.92c0-0.21,0-0.42-0.01-0.63c0.96-0.69,1.8-1.55,2.46-2.54
	C23.12,5,22.17,5.26,21.17,5.38c1.02-0.6,1.8-1.56,2.17-2.71c-0.95,0.56-2.01,0.96-3.13,1.18c-0.9-0.95-2.18-1.55-3.59-1.55
	c-2.72,0-4.93,2.19-4.93,4.89c0,0.38,0.05,0.75,0.12,1.12C7.72,8.12,4.09,6.16,1.66,3.2C1.24,3.93,1,4.77,1,5.67
	c0,1.7,0.87,3.2,2.19,4.07C2.38,9.71,1.62,9.49,0.96,9.13c0,0.02,0,0.04,0,0.07c0,2.37,1.7,4.35,3.95,4.8
	c-0.41,0.11-0.85,0.17-1.3,0.17c-0.32,0-0.62-0.03-0.92-0.09c0.62,1.95,2.45,3.36,4.6,3.4c-1.69,1.32-3.81,2.1-6.12,2.1
	c-0.39,0-0.79-0.02-1.17-0.07C2.17,20.88,4.76,21.69,7.54,21.69"/>
</svg>
