<svg xmlns="http://www.w3.org/2000/svg" viewBox="0 0 14 18">
  <defs/>
  <path fill="#7C8AA2" fill-rule="nonzero" d="M7.018 18a.934.934 0 00.703-.293l.064-.075 5.936-5.937a.992.992 0 00.281-.691.971.971 0 00-.293-.691.928.928 0 00-.691-.305c-.266 0-.5.094-.704.281l-4.29 4.29.001-13.571a1.085 1.085 0 00-.304-.715A.934.934 0 007.018 0a.934.934 0 00-.704.293c-.187.195-.289.434-.304.715v13.57l-4.29-4.289a1.006 1.006 0 00-.973-.258.985.985 0 00-.714.703.963.963 0 000 .516c.047.172.14.32.281.445l5.936 5.937.064.075a.934.934 0 00.704.293z"/>
</svg>