<?xml version="1.0" encoding="UTF-8"?>
<svg width="26px" height="27px" viewBox="0 0 26 27" version="1.1" xmlns="http://www.w3.org/2000/svg" xmlns:xlink="http://www.w3.org/1999/xlink">
    <title>Fill 1</title>
    <g id="♻️Symbols" stroke="none" stroke-width="1" fill="none" fill-rule="evenodd">
        <g id="i/iuser" transform="translate(-3.000000, -3.000000)" fill="#0A224C" stroke="#FFFFFF" stroke-width="0.5">
            <path d="M21.34375,19 L10.65625,19 C9.739579,19 8.875004,19.16667 8.0625,19.5 C7.249996,19.854168 6.54167,20.328122 5.9375,20.921875 C5.33333,21.515628 4.864585,22.218746 4.53125,23.03125 C4.1770816,23.843754 4,24.718745 4,25.65625 L4,28.3125 C4,28.7291688 4.1197905,29.0572905 4.359375,29.296875 C4.5989595,29.5364595 4.9270813,29.65625 5.34375,29.65625 C5.739585,29.65625 6.05729,29.5364595 6.296875,29.296875 C6.53646,29.0572905 6.65625,28.7291688 6.65625,28.3125 L6.65625,25.65625 C6.65625,24.531244 7.041663,23.583337 7.8125,22.8125 C8.583337,22.041663 9.531244,21.65625 10.65625,21.65625 L21.34375,21.65625 C22.46876,21.65625 23.41666,22.041663 24.1875,22.8125 C24.95834,23.583337 25.34375,24.531244 25.34375,25.65625 L25.34375,28.3125 C25.34375,28.7291688 25.46354,29.0572905 25.70312,29.296875 C25.94271,29.5364595 26.26041,29.65625 26.65625,29.65625 C27.07292,29.65625 27.40104,29.5364595 27.64062,29.296875 C27.88021,29.0572905 28,28.7291688 28,28.3125 L28,25.65625 C28,24.718745 27.82292,23.843754 27.46875,23.03125 C27.13541,22.218746 26.66667,21.515628 26.0625,20.921875 C25.45833,20.328122 24.75,19.854168 23.9375,19.5 C23.125,19.16667 22.26042,19 21.34375,19 Z M16,17.3125 C16.9375,17.3125 17.8125,17.14583 18.625,16.8125 C19.4375,16.45833 20.14062,15.98438 20.73438,15.39063 C21.32813,14.79687 21.80208,14.09375 22.15625,13.28125 C22.48958,12.46875 22.65625,11.59375 22.65625,10.65625 C22.65625,9.71875 22.48958,8.84375 22.15625,8.03125 C21.80208,7.21875 21.32813,6.51563 20.73438,5.92187 C20.14062,5.32812 19.4375,4.85417 18.625,4.5 C17.8125,4.16667 16.9375,4 16,4 C15.0625,4 14.1875,4.16667 13.375,4.5 C12.562496,4.85417 11.859378,5.32812 11.265625,5.92187 C10.671872,6.51563 10.197918,7.21875 9.84375,8.03125 C9.510415,8.84375 9.34375,9.71875 9.34375,10.65625 C9.34375,11.59375 9.510415,12.46875 9.84375,13.28125 C10.197918,14.09375 10.671872,14.79687 11.265625,15.39063 C11.859378,15.98438 12.562496,16.45833 13.375,16.8125 C14.1875,17.14583 15.0625,17.3125 16,17.3125 Z M16,6.65625 C17.12501,6.65625 18.07291,7.04166 18.84375,7.8125 C19.61459,8.58334 20,9.53124 20,10.65625 C20,11.78126 19.61459,12.72916 18.84375,13.5 C18.07291,14.27084 17.12501,14.65625 16,14.65625 C14.87499,14.65625 13.927087,14.27084 13.15625,13.5 C12.385413,12.72916 12,11.78126 12,10.65625 C12,9.53124 12.385413,8.58334 13.15625,7.8125 C13.927087,7.04166 14.87499,6.65625 16,6.65625 Z" id="Fill-1"></path>
        </g>
    </g>
</svg>