<?xml version="1.0" encoding="utf-8"?>
<!-- Generator: Adobe Illustrator 24.0.1, SVG Export Plug-In . SVG Version: 6.00 Build 0)  -->
<svg version="1.1" id="Layer_1" xmlns="http://www.w3.org/2000/svg" xmlns:xlink="http://www.w3.org/1999/xlink" x="0px" y="0px"
	 width="44px" height="88px" viewBox="0 0 44 88" enable-background="new 0 0 44 88" xml:space="preserve">
<path id="Close" fill="#0A224C" d="M23.7,22l8.9-9c0.5-0.5,0.5-1.2,0-1.7c-0.5-0.5-1.2-0.5-1.7,0l-8.9,9l-9-9
	c-0.5-0.5-1.2-0.5-1.7,0c-0.5,0.5-0.5,1.2,0,1.7l8.9,9l-8.9,9c-0.5,0.5-0.5,1.2,0,1.7c0.2,0.2,0.6,0.4,0.8,0.4
	c0.3,0,0.6-0.1,0.8-0.4l9-9l9,9c0.2,0.2,0.6,0.4,0.8,0.4c0.3,0,0.6-0.1,0.8-0.4c0.5-0.5,0.5-1.2,0-1.7L23.7,22z"/>
<path fill-rule="evenodd" clip-rule="evenodd" fill="#0A224C" d="M34.8,55.3H16.9c-0.7,0-1.2,0.5-1.2,1.2c0,0.7,0.5,1.2,1.2,1.2
	h17.9c0.7,0,1.2-0.5,1.2-1.2C36,55.8,35.5,55.3,34.8,55.3z"/>
<path fill-rule="evenodd" clip-rule="evenodd" fill="#0A224C" d="M34.8,64.9H9.2c-0.7,0-1.2,0.5-1.2,1.2s0.5,1.2,1.2,1.2h25.6
	c0.7,0,1.2-0.5,1.2-1.2S35.5,64.9,34.8,64.9z"/>
<path fill-rule="evenodd" clip-rule="evenodd" fill="#0A224C" d="M34.8,74.3H16.9c-0.7,0-1.2,0.5-1.2,1.2c0,0.7,0.5,1.2,1.2,1.2
	h17.9c0.7,0,1.2-0.5,1.2-1.2C36,74.8,35.5,74.3,34.8,74.3z"/>
</svg>
