<svg width="20" heihgt="20" xmlns="http://www.w3.org/2000/svg" viewBox="0 0 16 16">
  <defs/>
  <path fill="#0A224C" fill-rule="nonzero" d="M8 15.992a.954.954 0 00.703-.281 1.04 1.04 0 00.305-.703l-.001-6h6a1.04 1.04 0 00.704-.305.954.954 0 00.281-.703.954.954 0 00-.281-.703 1.04 1.04 0 00-.703-.305l-6.001.001v-6a1.04 1.04 0 00-.304-.704A.954.954 0 008 .008a.954.954 0 00-.703.281 1.04 1.04 0 00-.305.703v6.001h-6a1.04 1.04 0 00-.703.304A.954.954 0 00.008 8c0 .281.094.516.281.703.188.188.422.29.703.305h6v6c.016.281.117.515.305.703a.954.954 0 00.703.281z"/>
</svg>